<svg width="27" height="23" viewBox="0 0 27 23" fill="none" xmlns="http://www.w3.org/2000/svg">
<path d="M13.8667 22.3145C7.95654 22.3145 3.05908 17.417 3.05908 11.5068C3.05908 5.58838 7.94824 0.690918 13.8584 0.690918C19.7769 0.690918 24.6826 5.58838 24.6826 11.5068C24.6826 17.417 19.7852 22.3145 13.8667 22.3145ZM13.8667 20.7705C19.0049 20.7705 23.1304 16.6367 23.1304 11.5068C23.1304 6.36865 18.9966 2.24316 13.8584 2.24316C8.72852 2.24316 4.61133 6.36865 4.61133 11.5068C4.61133 16.6367 8.73682 20.7705 13.8667 20.7705ZM13.8584 11.208C12.3394 11.1997 11.1191 9.92969 11.1191 8.21973C11.1191 6.60938 12.3394 5.28125 13.8584 5.28125C15.3774 5.28125 16.5977 6.60938 16.5977 8.21973C16.5977 9.92969 15.3774 11.2163 13.8584 11.208ZM8.91113 16.9604C8.5293 16.9604 8.35498 16.7114 8.35498 16.3462C8.35498 15.1758 10.1147 12.0796 13.8584 12.0796C17.6104 12.0796 19.3701 15.1758 19.3701 16.3462C19.3701 16.7114 19.1875 16.9604 18.8057 16.9604H8.91113Z" />
</svg>
