<svg width="8" height="13" viewBox="0 0 8 13" fill="none" xmlns="http://www.w3.org/2000/svg">
<path d="M6.73438 -4.57764e-05C7.02083 -4.57764e-05 7.25521 0.104121 7.4375 0.312454C7.64583 0.494746 7.75 0.729121 7.75 1.01558C7.75 1.276 7.64583 1.51037 7.4375 1.7187L2.71094 6.24995L7.4375 10.7812C7.64583 10.9895 7.75 11.2239 7.75 11.4843C7.75 11.7708 7.64583 12.0182 7.4375 12.2265C7.25521 12.4088 7.02083 12.5 6.73438 12.5C6.47396 12.5 6.2526 12.4088 6.07031 12.2265L0.5625 6.95308C0.354167 6.79683 0.25 6.56245 0.25 6.24995C0.25 5.9635 0.354167 5.7161 0.5625 5.50777L6.07031 0.273392C6.2526 0.0911001 6.47396 -4.57764e-05 6.73438 -4.57764e-05Z"/>
</svg>
