<svg width="21" height="21"><path d="M9.266 20.75c-.287 0-.534-.104-.743-.313a.952.952 0 0 1-.273-.703v-8.398c0-.234.078-.443.234-.625.157-.182.352-.3.586-.352L19.54 8.25h.194c.287 0 .521.104.703.313a.892.892 0 0 1 .313.703v8.398a.933.933 0 0 1-.234.625c-.157.182-.352.3-.586.352L9.46 20.75h-.194Zm.976-8.594v6.367l8.516-1.68v-6.366l-8.516 1.68ZM5.516 17a1.09 1.09 0 0 1-.743-.273 1.09 1.09 0 0 1-.273-.743V7.586c0-.234.078-.443.234-.625.157-.182.352-.3.586-.352L15.79 4.5h.194c.287 0 .521.104.704.313a.892.892 0 0 1 .312.703c0 .52-.273.846-.82.976L6.492 8.406v7.578c0 .287-.091.534-.273.743a.952.952 0 0 1-.703.273Zm-3.75-3.75a1.09 1.09 0 0 1-.743-.273 1.09 1.09 0 0 1-.273-.743V3.836c0-.234.078-.443.234-.625.157-.182.352-.3.586-.352L12.04.75h.194c.287 0 .521.104.704.313a.892.892 0 0 1 .312.703c0 .52-.273.846-.82.976L2.742 4.656v7.578c0 .287-.091.534-.273.743a.952.952 0 0 1-.703.273Z"/></svg>