<svg width="18" height="21"><path d="M16.742 6.531c.755.677 1.133 1.537 1.133 2.578v8.125c0 .99-.338 1.823-1.016 2.5-.677.677-1.51 1.016-2.5 1.016H3.891c-.99 0-1.823-.338-2.5-1.016-.677-.677-1.016-1.51-1.016-2.5V9.11c0-1.015.378-1.875 1.133-2.578l5.234-4.843A3.4 3.4 0 0 1 9.125.75c.938 0 1.732.313 2.383.938l5.234 4.843Zm-.86 2.578c0-.416-.155-.78-.468-1.093l-5.273-4.883c-.313-.26-.651-.39-1.016-.39s-.703.13-1.016.39L2.875 8.016a1.37 1.37 0 0 0-.508 1.093v8.125c0 .443.143.808.43 1.094.286.287.65.43 1.094.43h1.484v-5.781c0-.625.221-1.16.664-1.602a2.183 2.183 0 0 1 1.602-.664h3.007c.6 0 1.12.221 1.563.664.443.443.664.977.664 1.602v5.78h1.484c.443 0 .808-.142 1.094-.429.287-.286.43-.65.43-1.094V9.11Zm-5 3.868c0-.183-.077-.274-.234-.274H7.641c-.183 0-.274.091-.274.274v5.78h3.516v-5.78Z"/></svg>