<svg width="29" height="40" viewBox="0 0 29 40" fill="none" xmlns="http://www.w3.org/2000/svg">
<path d="M14.375 32.75C14.1406 32.75 13.9323 32.6719 13.75 32.5156C12.8646 31.8906 11.9661 31.1484 11.0547 30.2891C10.1693 29.4297 9.36198 28.4922 8.63281 27.4766C7.92969 26.4349 7.35677 25.3411 6.91406 24.1953C6.47135 23.0495 6.25 21.9036 6.25 20.7578C6.25 19.6641 6.45833 18.6354 6.875 17.6719C7.29167 16.6823 7.86458 15.8229 8.59375 15.0938C9.32292 14.3646 10.1823 13.7917 11.1719 13.375C12.1615 12.9583 13.2292 12.75 14.375 12.75C15.5208 12.75 16.5885 12.9583 17.5781 13.375C18.5677 13.7917 19.4271 14.3646 20.1562 15.0938C20.8854 15.8229 21.4583 16.6823 21.875 17.6719C22.2917 18.6615 22.5 19.7161 22.5 20.8359C22.5 21.9036 22.3177 22.9323 21.9531 23.9219C21.6146 24.9115 21.1719 25.8359 20.625 26.6953C20.0781 27.5286 19.4792 28.3099 18.8281 29.0391C18.2031 29.7422 17.6172 30.3542 17.0703 30.875C16.5234 31.3698 16.0547 31.7604 15.6641 32.0469C15.2995 32.3333 15.0911 32.4896 15.0391 32.5156C14.9089 32.6198 14.7917 32.6849 14.6875 32.7109C14.5833 32.737 14.4792 32.75 14.375 32.75ZM14.375 14.7422C13.5156 14.7422 12.7083 14.9115 11.9531 15.25C11.224 15.5625 10.5729 15.9922 10 16.5391C9.45312 17.0859 9.02344 17.737 8.71094 18.4922C8.39844 19.2214 8.24219 20.0156 8.24219 20.875C8.24219 21.9688 8.48958 23.0365 8.98438 24.0781C9.47917 25.0938 10.0521 26.0312 10.7031 26.8906C11.3802 27.724 12.0573 28.4531 12.7344 29.0781C13.4375 29.7031 13.9844 30.1719 14.375 30.4844C14.7917 30.1719 15.3385 29.7031 16.0156 29.0781C16.7188 28.4531 17.3958 27.724 18.0469 26.8906C18.724 26.0312 19.2969 25.0938 19.7656 24.0781C20.2604 23.0365 20.5078 21.9688 20.5078 20.875C20.5078 20.0156 20.3516 19.2214 20.0391 18.4922C19.7266 17.737 19.2839 17.0859 18.7109 16.5391C18.1641 15.9922 17.513 15.5625 16.7578 15.25C16.0286 14.9115 15.2344 14.7422 14.375 14.7422ZM14.375 24.7422C13.3073 24.7422 12.4089 24.3906 11.6797 23.6875C10.9766 22.9583 10.625 22.0599 10.625 20.9922C10.625 19.9245 10.9766 19.0391 11.6797 18.3359C12.4089 17.6068 13.3073 17.2422 14.375 17.2422C15.4427 17.2422 16.3281 17.6068 17.0312 18.3359C17.7604 19.0391 18.125 19.9245 18.125 20.9922C18.125 22.0599 17.7604 22.9583 17.0312 23.6875C16.3281 24.3906 15.4427 24.7422 14.375 24.7422ZM14.375 19.2344C13.8542 19.2344 13.4245 19.4036 13.0859 19.7422C12.7734 20.0547 12.6172 20.4714 12.6172 20.9922C12.6172 21.513 12.7734 21.9427 13.0859 22.2812C13.4245 22.5938 13.8542 22.75 14.375 22.75C14.8958 22.75 15.3125 22.5938 15.625 22.2812C15.9635 21.9427 16.1328 21.513 16.1328 20.9922C16.1328 20.4714 15.9635 20.0547 15.625 19.7422C15.3125 19.4036 14.8958 19.2344 14.375 19.2344Z"/>
</svg>
