<svg width="14" height="18" viewBox="0 0 14 18" fill="none" xmlns="http://www.w3.org/2000/svg">
<path d="M7 17.0625C6.80078 17.0625 6.6237 16.9961 6.46875 16.8633C5.71615 16.332 4.95247 15.7012 4.17773 14.9707C3.42513 14.2402 2.73893 13.4434 2.11914 12.5801C1.52148 11.6947 1.03451 10.765 0.658203 9.79102C0.281901 8.81706 0.09375 7.8431 0.09375 6.86914C0.09375 5.93945 0.270833 5.0651 0.625 4.24609C0.979167 3.40495 1.46615 2.67448 2.08594 2.05469C2.70573 1.4349 3.4362 0.947917 4.27734 0.59375C5.11849 0.239583 6.02604 0.0625 7 0.0625C7.97396 0.0625 8.88151 0.239583 9.72266 0.59375C10.5638 0.947917 11.2943 1.4349 11.9141 2.05469C12.5339 2.67448 13.0208 3.40495 13.375 4.24609C13.7292 5.08724 13.9062 5.98372 13.9062 6.93555C13.9062 7.8431 13.7513 8.71745 13.4414 9.55859C13.1536 10.3997 12.7773 11.1855 12.3125 11.916C11.8477 12.6243 11.3385 13.2884 10.7852 13.9082C10.2539 14.5059 9.75586 15.026 9.29102 15.4688C8.82617 15.8893 8.42773 16.2214 8.0957 16.4648C7.78581 16.7083 7.60872 16.8411 7.56445 16.8633C7.45378 16.9518 7.35417 17.0072 7.26562 17.0293C7.17708 17.0514 7.08854 17.0625 7 17.0625ZM7 1.75586C6.26953 1.75586 5.58333 1.89974 4.94141 2.1875C4.32161 2.45312 3.76823 2.81836 3.28125 3.2832C2.81641 3.74805 2.45117 4.30143 2.18555 4.94336C1.91992 5.56315 1.78711 6.23828 1.78711 6.96875C1.78711 7.89844 1.9974 8.80599 2.41797 9.69141C2.83854 10.5547 3.32552 11.3516 3.87891 12.082C4.45443 12.7904 5.02995 13.4102 5.60547 13.9414C6.20312 14.4727 6.66797 14.8711 7 15.1367C7.35417 14.8711 7.81901 14.4727 8.39453 13.9414C8.99219 13.4102 9.56771 12.7904 10.1211 12.082C10.6966 11.3516 11.1836 10.5547 11.582 9.69141C12.0026 8.80599 12.2129 7.89844 12.2129 6.96875C12.2129 6.23828 12.0801 5.56315 11.8145 4.94336C11.5488 4.30143 11.1725 3.74805 10.6855 3.2832C10.2207 2.81836 9.66732 2.45312 9.02539 2.1875C8.4056 1.89974 7.73047 1.75586 7 1.75586ZM7 10.2559C6.09245 10.2559 5.32878 9.95703 4.70898 9.35938C4.11133 8.73958 3.8125 7.97591 3.8125 7.06836C3.8125 6.16081 4.11133 5.4082 4.70898 4.81055C5.32878 4.19076 6.09245 3.88086 7 3.88086C7.90755 3.88086 8.66016 4.19076 9.25781 4.81055C9.8776 5.4082 10.1875 6.16081 10.1875 7.06836C10.1875 7.97591 9.8776 8.73958 9.25781 9.35938C8.66016 9.95703 7.90755 10.2559 7 10.2559ZM7 5.57422C6.55729 5.57422 6.19206 5.7181 5.9043 6.00586C5.63867 6.27148 5.50586 6.62565 5.50586 7.06836C5.50586 7.51107 5.63867 7.8763 5.9043 8.16406C6.19206 8.42969 6.55729 8.5625 7 8.5625C7.44271 8.5625 7.79688 8.42969 8.0625 8.16406C8.35026 7.8763 8.49414 7.51107 8.49414 7.06836C8.49414 6.62565 8.35026 6.27148 8.0625 6.00586C7.79688 5.7181 7.44271 5.57422 7 5.57422Z"/>
</svg>
