<svg width="22" height="21" viewBox="0 0 22 21" fill="none" xmlns="http://www.w3.org/2000/svg">
<path d="M0.624023 8.43994C0.624023 3.80811 4.39258 0.0395508 9.02441 0.0395508C13.6562 0.0395508 17.4248 3.80811 17.4248 8.43994C17.4248 10.3906 16.7441 12.1919 15.6152 13.6113L21.0605 19.0815C21.2598 19.2891 21.3677 19.5547 21.3677 19.8618C21.3677 20.4844 20.9277 20.9824 20.272 20.9824C19.9731 20.9824 19.6826 20.8745 19.4751 20.6587L14.0049 15.1802C12.6104 16.2178 10.8921 16.832 9.02441 16.832C4.39258 16.832 0.624023 13.0635 0.624023 8.43994ZM2.17627 8.43994C2.17627 12.2085 5.24756 15.2798 9.02441 15.2798C12.8013 15.2798 15.8643 12.2085 15.8643 8.43994C15.8643 4.66309 12.8013 1.5918 9.02441 1.5918C5.24756 1.5918 2.17627 4.66309 2.17627 8.43994Z" />
</svg>
